<svg width="197.4252" height="172.91338" xmlns="http://www.w3.org/2000/svg">

 <g>
  <title>background</title>
  <rect fill="none" id="canvas_background" height="174.91338" width="199.4252" y="-1" x="-1"/>
 </g>
 <g>
  <title>Layer 1</title>
  <g id="layer1">
   <g id="g9697">
    <path fill="#2e4b7d" fill-rule="evenodd" id="path9582" d="m96.924146,82.056251l36.73395,-64.28443l-73.85057,0.00001l37.11662,64.28442zm24.87194,-56.24888c2.67852,-1.14792 4.20911,-2.29586 6.12233,-3.44381l0.38265,0.38265c-1.14794,1.53059 -2.67852,2.67852 -3.82646,5.35703l-23.34137,40.17779c-1.53057,2.29586 -2.29587,4.2091 -3.06116,6.12232l-0.38265,-0.38265c0,-2.29586 0.38265,-4.59173 0.38265,-7.27027l0,-26.78518l23.72401,-14.15788l0,0zm-26.40253,14.15788l0,26.78518c0,2.67854 0.38265,4.97441 0.38265,7.27027l-0.38265,0.38265c-0.7653,-1.91322 -1.53057,-3.82646 -3.06116,-6.12232l-22.95873,-40.17779c-1.53059,-2.67851 -3.06116,-3.82644 -4.2091,-5.35703l0.38264,-0.38265c1.91322,1.14795 3.44382,2.29589 6.12233,3.44381l23.72402,14.15788l0,0zm18.36698,35.58605c-2.67851,1.53057 -4.2091,2.67851 -6.12232,3.82644l-0.38265,-0.38265c1.14794,-1.53057 2.67851,-3.06116 3.82646,-5.73968l23.34137,-39.79512c1.53059,-2.29588 2.29587,-4.59175 3.06116,-6.12232l0.38265,0c0,2.29586 -0.38265,4.97438 -0.38265,7.27025l0,27.16783l-23.72402,13.77525zm-57.39682,-13.77525l0,-27.16783c0,-2.29587 -0.38265,-4.97439 -0.38265,-7.27025l0.38265,0c0.38265,1.53057 1.14794,3.82644 2.67852,6.12232l23.34137,39.79512c1.53059,2.67852 2.67853,4.20911 3.82646,5.73968l-0.38265,0.38265c-1.53057,-1.14793 -3.44381,-2.29587 -6.12233,-3.82644l-23.34137,-13.77525zm83.79936,0l0,-27.16783c0,-2.29587 -0.38265,-4.97439 -0.38265,-7.27025l0.38265,0c0.76529,1.53057 1.53059,3.82644 3.06116,6.12232l22.95873,39.79512c1.53059,2.67852 3.06116,4.20911 4.2091,5.73968l-0.38264,0.38265c-1.91323,-1.14793 -3.44382,-2.29587 -6.12233,-3.82644l-23.72402,-13.77525l0,0zm-110.58454,13.77525c-2.67852,1.53057 -4.20911,2.67851 -6.12233,3.82644l0,-0.38265c0.7653,-1.53057 2.29587,-3.06116 3.82646,-5.73968l23.34137,-39.79512c1.14794,-2.29588 1.91322,-4.59175 2.67852,-6.12232l0.38264,0c0,2.29586 -0.38264,4.97438 -0.38264,7.27025l0,27.16783l-23.72402,13.77525l0,0zm68.49354,57.3968l0,-27.16783c0,-2.29587 -0.38265,-4.97438 -0.38265,-7.27025l0.38265,0c0.76529,1.53057 1.53059,3.82646 3.06116,6.12233l23.34137,40.17776c1.14794,2.29589 2.67852,3.82646 3.82646,5.35705l-0.38265,0.38265c-1.91322,-1.14794 -3.44381,-2.29589 -6.12233,-3.82646l-23.72401,-13.77525l0,0zm-26.40254,13.77525c-2.67851,1.53057 -4.20911,2.67852 -6.12233,3.82646l-0.38264,-0.38265c1.14794,-1.53059 2.67851,-3.06116 4.2091,-5.35705l22.95873,-40.17776c1.53059,-2.29587 2.29586,-4.59176 3.06116,-6.12233l0.38265,0c0,2.29587 -0.38265,4.97438 -0.38265,7.27025l0,27.16783l-23.72402,13.77525l0,0zm-16.83639,6.50498l36.73395,-64.28445l-73.85057,0l37.11662,64.28445zm24.87194,-55.86625c2.67852,-1.53058 4.59176,-2.67852 6.12233,-3.82644l0.38265,0.38262c-1.14793,1.53059 -2.29587,3.06117 -3.82646,5.35706l-23.34137,40.17776c-1.53058,2.29587 -2.29587,4.59175 -2.67852,6.12233l-0.38265,-0.38265c0,-1.91322 0.38265,-4.59174 0.38265,-6.88761l0,-27.16783l23.34137,-13.77524zm-26.40253,13.77524l0,27.16783c0,2.29587 0.38264,4.97439 0.38264,6.88761l-0.38264,0.38265c-0.7653,-1.53058 -1.53058,-3.82646 -2.67852,-6.12233l-23.34137,-40.17776c-1.53059,-2.29589 -3.06116,-3.82647 -3.82646,-5.35706l0,-0.38262c1.91322,1.14792 3.44381,2.29586 6.12233,3.82644l23.72402,13.77524l0,0zm85.32995,42.09101l37.1166,-64.28445l-73.85057,0l36.73397,64.28445zm-1.14795,-42.09101l0,27.16783c0,2.29587 0.38265,4.97439 0.38265,6.88761l-0.38265,0.38265c-0.76529,-1.53058 -1.53057,-3.82646 -3.06116,-6.12233l-23.34137,-40.17776c-1.14795,-2.29589 -2.67852,-3.82647 -3.82646,-5.35706l0.38265,-0.38262c1.91322,1.14792 3.44381,2.29586 6.12232,3.82644l23.72402,13.77524zm26.40254,-13.77524c2.67851,-1.53058 4.2091,-2.67852 6.12233,-3.82644l0.38264,0.38262c-1.14794,1.53059 -2.67851,3.06117 -4.2091,5.35706l-22.95873,40.17776c-1.53057,2.29587 -2.29587,4.59175 -3.06116,6.12233l-0.38265,-0.38265c0,-1.91322 0.38265,-4.59174 0.38265,-6.88761l0,-27.16783l23.72402,-13.77524l0,0zm-45.15217,-76.52909c3.06116,0 5.35705,-0.38265 7.65292,-0.7653l0,0.38265c-1.53059,0.7653 -3.82646,1.53057 -6.12233,3.06117l-23.34137,13.77522l-23.72404,-13.77522c-2.29586,-1.5306 -4.59173,-2.29587 -6.1223,-3.06117l0,-0.38265c2.29586,0.38265 4.59173,0.7653 7.6529,0.7653l44.00422,0l0,0zm-41.70836,71.17205c2.67852,0 4.97441,-0.38264 7.27028,-0.38264l0,0c-1.5306,0.76529 -3.82646,1.53059 -6.12233,3.06116l-23.34137,13.77525l-23.72402,-13.77525c-1.91324,-1.53057 -4.59176,-2.29587 -6.12233,-3.06116l0,0c2.29587,0 4.59174,0.38264 7.6529,0.38264l44.38687,0zm83.79936,0c3.06117,0 5.35704,-0.38264 7.65292,-0.38264l0,0c-1.53059,0.76529 -3.82646,1.53059 -6.12233,3.06116l-23.72401,13.77525l-23.34139,-13.77525c-2.29587,-1.53057 -4.59174,-2.29587 -6.12233,-3.06116l0,0c2.29589,0 4.59175,0.38264 7.65292,0.38264l44.00422,0zm-128.18623,-11.09671c-3.06116,0 -5.35703,0 -7.6529,0.38265l0,-0.38265c1.53057,-0.7653 4.20909,-1.53059 6.12233,-2.67852l23.72402,-13.77525l23.34137,13.77525c2.29587,1.14793 4.59173,1.91322 6.12233,2.67852l0,0.38265c-2.29587,-0.38265 -4.59176,-0.38265 -7.27028,-0.38265l-44.38687,0zm-14.92317,3.06116l73.85057,0l-36.73395,-64.28444l-37.11662,64.28444zm99.10518,-3.06116c-3.06117,0 -5.35703,0 -7.65292,0.38265l0,-0.38265c1.53059,-0.7653 3.82646,-1.53059 6.12233,-2.67852l23.34139,-13.77525l23.72401,13.77525c2.29587,1.14793 4.59174,1.91322 6.12233,2.67852l0,0.38265c-2.29588,-0.38265 -4.59175,-0.38265 -7.65292,-0.38265l-44.00422,0zm-14.92317,3.06116l73.85057,0l-37.1166,-64.28444l-36.73397,64.28444l0,0zm-42.09101,71.17206l73.85057,0l-36.73395,-64.28445l-37.11662,64.28445zm14.92318,-3.06117c-3.06117,0 -5.35704,0 -7.6529,0.38265l0,-0.38265c1.53057,-0.38264 3.82644,-1.14794 6.1223,-2.67851l23.72404,-13.77523l23.34137,13.77523c2.29587,1.53057 4.59174,2.29587 6.12233,2.67851l0,0.38265c-2.29587,-0.38265 -4.59176,-0.38265 -7.65292,-0.38265l-44.00422,0l0,0z"/>
    <path fill="#2e4b7d" fill-rule="evenodd" id="path9584" d="m368.602446,109.989381c0,3.82646 -2.67853,6.50498 -7.27031,6.50498c-4.59178,0 -8.8009,-1.91322 -10.71414,-5.35704c-2.2957,-3.82646 -3.06099,-4.59175 -4.59158,-4.59175c-1.5306,0 -2.29589,1.53059 -2.29589,3.06116c0,1.14795 0.76529,3.82646 1.53059,8.80085c0.38265,2.67851 1.14794,3.82646 2.67854,3.82646c1.91324,0 1.91324,-1.91322 3.82628,-1.91322c2.29589,0 4.59178,1.91322 10.71414,1.91322c7.27031,0 16.45387,-4.59174 16.45387,-14.54053c0,-15.30582 -23.34153,-17.60169 -23.34153,-26.01988c0,-2.67854 2.29589,-4.97441 6.12237,-4.97441c3.44383,0 6.88766,1.53059 9.5662,4.97441c1.14794,1.91322 1.91324,3.44379 3.82648,3.44379c1.53059,0 2.29588,-0.38265 2.29588,-1.91322c0,-1.14795 -0.38264,-3.06117 -1.53059,-8.4182c-0.76529,-2.67851 -1.14794,-3.44381 -2.67853,-3.44381c-0.7653,0 -1.5306,0.38265 -1.91324,0.7653c-0.38265,0.38264 -0.7653,1.14792 -1.5306,1.14792c-1.14794,0 -1.91324,-0.38265 -3.06118,-0.76528c-1.91324,-0.76529 -3.82648,-0.76529 -6.50501,-0.76529c-10.3313,0 -15.30573,5.35703 -15.30573,11.09671c0,14.15788 23.72398,16.83641 23.72398,27.16783l0,0l0,0zm39.41255,-13.00995c0,15.30582 9.94865,25.25461 25.25457,25.25461c14.92307,0 25.25456,-9.94879 25.25456,-25.25461c0,-15.68845 -10.33149,-25.25459 -25.25456,-25.25459c-15.30592,0 -25.25457,9.56614 -25.25457,25.25459l0,0zm-182.52197,8.41821c0,4.97439 -0.38265,5.35704 -2.67852,5.73968c-1.91324,0.38265 -2.67853,1.14793 -2.67853,2.29587c0,4.97439 13.77525,8.80085 27.93312,8.80085c20.66286,0 29.84635,-10.71407 29.84635,-24.87196c0,-10.71407 -6.12233,-18.74962 -19.13226,-19.89756l0,-0.38265c9.94877,-1.91322 15.68845,-8.80084 15.68845,-16.83639c0,-13.00996 -10.33142,-19.51493 -26.01989,-19.51493c-14.92317,0 -27.93313,4.9744 -27.93313,8.80084c0,1.14795 0.38265,1.53059 2.29589,1.91324c2.29587,0.38263 2.67852,0.76528 2.67852,3.82644l0,50.12657l0,0zm12.24466,-48.59598c0,-7.65292 3.06116,-10.33143 10.71406,-10.33143c9.18349,0 13.3926,6.50497 13.3926,14.54052c0,9.56614 -6.12233,13.3926 -13.3926,13.77525l-2.67852,0.38265c-1.91322,0 -3.44381,0.76528 -3.44381,3.06116c0,1.53058 1.53059,2.67852 3.44381,2.67852l2.67852,0c11.09671,0 16.07112,8.03555 16.07112,17.60169c0,8.80084 -4.97441,17.60169 -16.07112,17.60169c-9.18349,0 -10.71406,-3.44381 -10.71406,-10.71407l0,-48.59598zm49.36125,55.86624c0,3.06116 -1.14792,3.44381 -3.06116,3.82646l-1.53057,0c-1.14795,0.38264 -1.91324,1.14794 -1.91324,1.91322c0,1.14794 0.76529,2.29587 2.67851,2.29587l17.98432,0c1.91324,0 2.67854,-1.14793 2.67854,-2.29587c0,-0.76528 -0.7653,-1.53058 -1.91324,-1.91322l-1.91324,0c-1.5306,-0.38265 -2.67854,-0.7653 -2.67854,-3.82646l0,-20.28021c0,-8.80084 2.67854,-12.24466 6.88766,-12.24466c1.14795,0 2.29589,0.38265 3.06119,1.14795c1.14794,0.76527 1.91324,1.14792 3.06118,1.14792c0.7653,0 1.91324,-1.14792 3.06118,-2.29587c1.5306,-1.91322 2.29589,-3.06116 2.29589,-3.82646c0,-1.91322 -3.44383,-4.59173 -7.27031,-4.59173c-5.35707,0 -8.8009,3.06116 -10.71414,7.6529l-0.38265,0l0,-4.59174c0,-2.67851 -0.7653,-3.06116 -2.29589,-3.06116c-1.14794,0 -2.29589,0.38265 -4.20913,1.14792l-7.65282,3.82646c-1.91322,0.7653 -2.29587,1.14795 -2.29587,1.91324c0,1.14793 0.7653,1.91322 2.67852,1.91322c2.29589,0 3.44381,0.7653 3.44381,4.20909l0,27.93313zm132.3953,-15.68847c0,-11.86201 5.35707,-19.89756 13.77533,-19.89756c8.80071,0 13.77513,8.03555 13.77513,19.89756c0,11.86201 -4.97442,19.51493 -13.77513,19.51493c-8.41826,0 -13.77533,-7.65292 -13.77533,-19.51493l0,0zm-21.42809,-15.68845c0,-2.67852 0.38265,-3.06117 3.06118,-3.06117l4.20913,0c1.91324,0 2.67854,-1.14794 2.67854,-2.67851c0,-1.91324 -0.7653,-2.67854 -2.67854,-2.67854l-7.27031,0l0,-18.74961c0,-1.53059 -0.38265,-2.29589 -1.53059,-2.29589c-0.7653,0 -1.53059,0.7653 -2.67854,1.14794l-4.59177,2.29587c-1.14795,0.7653 -1.5306,1.14795 -1.5306,2.67852l0,14.92317l-4.59177,0c-1.91324,0 -3.06099,0.7653 -3.06099,2.67854c0,1.53057 0.7651,1.53057 2.67834,1.53057l1.91324,0c2.29589,0 3.06118,0.38265 3.06118,3.06116l0,30.61165c0,7.27025 1.91324,11.47936 9.94885,11.47936c6.50502,0 11.86209,-3.44382 11.86209,-5.73968c0,-1.5306 -0.7653,-2.67852 -1.91324,-2.67852c-1.91324,0 -3.44383,1.91322 -6.12237,1.91322c-2.29589,0 -3.44383,-1.14792 -3.44383,-5.35703l0,-29.08105l0,0zm-73.46802,31.37692c0,3.06116 -0.7653,3.44381 -2.67854,3.82646l-1.53039,0c-1.53059,0.38264 -1.91324,1.14794 -1.91324,1.91322c0,1.14794 0.76529,2.29587 2.67834,2.29587l17.6018,0c1.91324,0 2.67854,-1.14793 2.67854,-2.29587c0,-0.76528 -0.38265,-1.53058 -1.91324,-1.91322l-1.53059,0c-1.53059,-0.38265 -2.67854,-0.7653 -2.67854,-3.82646l0,-37.8819c0,-2.67851 -1.14794,-3.06116 -2.29588,-3.06116c-1.14795,0 -2.29589,0.38265 -4.20913,1.14792l-8.03561,3.82646c-1.5304,0.7653 -1.91304,1.14795 -1.91304,1.91324c0,1.14793 0.76529,1.91322 2.29569,1.91322c2.67853,0 3.44383,0.7653 3.44383,4.20909l0,27.93313l0,0zm142.7267,0c0,3.06116 -1.1479,3.44381 -2.6785,3.82646l-1.5304,0c-1.5306,0.38264 -1.9133,1.14794 -1.9133,1.91322c0,1.14794 0.7653,2.29587 2.6784,2.29587l17.6018,0c1.9132,0 2.6785,-1.14793 2.6785,-2.29587c0,-0.76528 -0.3826,-1.53058 -1.9132,-1.91322l-1.5306,0c-1.9132,-0.38265 -2.6785,-0.7653 -2.6785,-3.82646l0,-68.11089c0,-2.29587 -1.148,-3.06117 -2.2959,-3.06117c-1.148,0 -2.6786,0.7653 -4.2092,1.53058l-8.0354,3.44381c-1.5306,0.76529 -1.9132,1.14794 -1.9132,2.29587c0,0.76529 0.7653,1.53059 2.2957,1.53059c2.6785,0 3.4438,0.76529 3.4438,4.2091l0,58.16211l0,0zm-144.25729,-59.6927c0,3.44382 3.06118,6.50498 6.50501,6.50498c3.44384,0 6.50502,-3.06116 6.50502,-6.50498c0,-3.44381 -3.06118,-6.50497 -6.50502,-6.50497c-3.44383,0 -6.50501,3.06116 -6.50501,6.50497l0,0z"/>
    <path fill="#2e4b7d" fill-rule="evenodd" id="path9586" d="m701.883436,112.667901c0,3.06116 -1.148,3.44381 -2.6786,3.82646l-1.5306,0c-1.5306,0.38264 -1.9132,1.14794 -1.9132,1.91322c0,1.14794 0.7653,2.29587 2.6785,2.29587l17.6018,0c1.9133,0 2.6786,-1.14793 2.6786,-2.29587c0,-0.76528 -0.3827,-1.53058 -1.9133,-1.91322l-1.5306,0c-1.9132,-0.38265 -3.0611,-0.7653 -3.0611,-3.82646l0,-20.28021c0,-8.80084 3.0611,-12.24466 6.8876,-12.24466c1.5304,0 2.2957,0.38265 3.4437,1.14795c1.1479,0.76527 1.9132,1.14792 2.6785,1.14792c1.1479,0 1.9132,-1.14792 3.0612,-2.29587c1.9132,-1.91322 2.2959,-3.06116 2.2959,-3.82646c0,-1.91322 -3.0612,-4.59173 -7.2704,-4.59173c-5.3568,0 -8.418,3.06116 -10.7139,7.6529l-0.3826,0l0,-4.59174c0,-2.67851 -0.7653,-3.06116 -1.9133,-3.06116c-1.1479,0 -2.6785,0.38265 -4.2091,1.14792l-8.0356,3.82646c-1.5306,0.7653 -1.9133,1.14795 -1.9133,1.91324c0,1.14793 0.7653,1.91322 2.2959,1.91322c2.6786,0 3.4439,0.7653 3.4439,4.20909l0,27.93313l0,0zm53.5703,-2.67852c0,3.82646 -2.6786,6.50498 -7.2701,6.50498c-4.5918,0 -8.8009,-1.91322 -10.7142,-5.35704c-2.2959,-3.82646 -3.0612,-4.59175 -4.5918,-4.59175c-1.5305,0 -2.2958,1.53059 -2.2958,3.06116c0,1.14795 0.7653,3.82646 1.5306,8.80085c0.3826,2.67851 1.1479,3.82646 2.6785,3.82646c1.9132,0 1.9132,-1.91322 3.8265,-1.91322c2.2959,0 4.5917,1.91322 10.7141,1.91322c7.2701,0 16.4537,-4.59174 16.4537,-14.54053c0,-15.30582 -23.3414,-17.60169 -23.3414,-26.01988c0,-2.67854 2.2959,-4.97441 6.1224,-4.97441c3.4437,0 6.8875,1.53059 9.566,4.97441c1.148,1.91322 1.9133,3.44379 3.8265,3.44379c1.5306,0 2.2959,-0.38265 2.2959,-1.91322c0,-1.14795 -0.3827,-3.06117 -1.5306,-8.4182c-0.7653,-2.67851 -1.148,-3.44381 -2.6785,-3.44381c-0.7653,0 -1.5306,0.38265 -1.9133,0.7653c-0.3826,0.38264 -0.7653,1.14792 -1.5306,1.14792c-1.1479,0 -1.9132,0 -3.0612,0c-1.5305,0 -3.8262,-1.53057 -6.5048,-1.53057c-10.3315,0 -15.3059,5.73968 -15.3059,12.24465c0,13.77523 23.724,16.45375 23.724,26.01989l0,0l0,0zm-69.2587,-17.60169c4.9742,-3.06116 6.5048,-4.59176 6.5048,-7.27027c0,-4.59174 -5.7395,-13.39258 -18.7495,-13.39258c-15.6884,0 -24.1067,11.09671 -24.1067,26.40253c0,14.92317 10.3313,24.10667 24.1067,24.10667c12.2447,0 20.2801,-8.4182 20.2801,-11.09672c0,-1.53059 -1.1479,-2.29588 -2.2959,-2.29588c-1.1479,0 -2.6783,1.53059 -4.5916,3.06116c-3.0612,3.06116 -6.8876,4.59176 -11.0968,4.59176c-9.9488,0 -14.9232,-7.65292 -14.9232,-19.13228c0,-12.24466 4.2091,-20.28021 11.8621,-20.28021c4.9744,0 8.0356,3.82646 8.0356,8.03555c0,2.67851 -0.3827,3.82646 -3.8265,5.73968l-9.5662,6.12233c-1.9133,1.14794 -2.6786,2.29589 -2.6786,3.82646c0,1.14794 1.148,2.67851 2.6786,2.67851c1.5306,0 2.2959,-0.76529 4.2091,-1.91322l14.158,-9.18349l0,0zm-158.79781,17.98434c0,3.44381 -0.7652,4.97438 -4.2091,5.35703c-2.2959,0 -3.4438,0.7653 -3.4438,2.67852c0,1.14794 1.1479,2.29587 3.4438,2.29587l16.0712,0c2.2959,0 3.4439,-1.14793 3.4439,-2.29587c0,-1.91322 -1.148,-2.67852 -3.4439,-2.67852c-3.4438,-0.38265 -4.2091,-1.91322 -4.2091,-5.35703l0,-49.74391l0.7653,0l18.7496,37.1166c1.9132,3.82646 3.0611,4.97439 4.5917,4.97439c1.148,0 2.6786,-1.14793 4.5918,-4.97439l18.7496,-39.02984l0.3826,0l0,51.65715c0,3.44381 -0.7653,4.97438 -4.2091,5.35703c-2.2959,0 -3.4438,0.7653 -3.4438,2.67852c0,1.14794 1.1479,2.29587 3.4438,2.29587l20.663,0c2.6785,0 3.4438,-1.14793 3.4438,-2.29587c0,-1.91322 -0.7653,-2.67852 -3.4438,-2.67852c-3.0612,-0.38265 -3.8265,-1.91322 -3.8265,-5.35703l0,-57.39683c0,-3.44381 0.7653,-4.97438 3.8265,-5.35703c2.6785,0 3.4438,-0.76529 3.4438,-2.67851c0,-1.14795 -0.7653,-2.29587 -3.4438,-2.29587l-11.4795,0c-4.2091,0 -4.5917,0.76527 -5.7397,2.67851l-20.2801,41.70836l-22.1934,-41.32571c-1.5306,-2.67853 -1.9133,-3.06116 -5.3571,-3.06116l-11.0968,0c-2.2959,0 -3.4438,1.14792 -3.4438,2.29587c0,1.91322 1.1479,2.67851 3.4438,2.67851c3.4439,0.38265 4.2091,1.91322 4.2091,5.35703l0,57.39683l0,0zm92.2174,-25.63726c-1.1479,-1.91322 -1.9132,-4.20909 -1.9132,-5.35703c0,-1.53057 1.1479,-2.29587 2.6785,-2.29587c1.9133,-0.38265 2.2959,-1.14794 2.2959,-1.91322c0,-1.14795 -1.1479,-1.91324 -3.0612,-1.91324l-16.4536,0c-1.9131,0 -3.061,0.38265 -3.061,1.91324c0,0.76528 0.3826,1.53057 1.9132,1.91322c2.2957,0.38265 4.2089,1.53059 6.1222,6.12233l16.4537,35.96867c-4.2092,6.88763 -9.5662,15.68847 -12.6274,20.28021c-0.7653,1.14794 -1.5306,1.91324 -1.5306,3.06116c0,0.7653 0.7653,0.7653 1.5306,0.7653l6.1223,0c1.5306,0 2.6786,0 3.4439,-1.91322c0.7653,-2.67854 3.0612,-8.80085 8.41821,-21.0455l14.9231,-37.88192c1.5306,-3.44381 2.2959,-4.20909 4.5918,-4.97438c1.9132,-0.7653 2.6785,-1.14795 2.6785,-2.29587c0,-1.53059 -0.7653,-1.91324 -1.9132,-1.91324l-13.7754,0c-1.9132,0 -2.6785,0.38265 -2.6785,1.91324c0,1.14792 0.7653,1.91322 2.2959,1.91322c1.9132,0.38265 3.4438,1.14794 3.4438,2.67852c0,1.14794 0,2.29586 -1.1479,4.59175l-8.8007,22.95872l-9.94891,-22.57609l0,0zm-105.61,15.68847c2.2959,0 2.6785,-0.76528 2.6785,-2.29587l0,-3.06116c0,-1.91322 -0.3826,-2.29587 -2.6785,-2.29587l-22.9587,0c-1.9133,0 -2.2959,0.38265 -2.2959,2.29587l0,3.06116c0,1.53059 0.3826,2.29587 2.2959,2.29587l22.9587,0z"/>
    <path fill="#2e4b7d" fill-rule="evenodd" id="path9588" d="m996.144036,44.557011c0,-2.29587 -0.7653,-3.06117 -2.2959,-3.06117c-1.1479,0 -2.2959,0.7653 -3.8265,1.53058l-8.0354,3.44381c-1.9132,0.76529 -2.2959,1.14794 -2.2959,2.29587c0,0.76529 0.7653,1.53059 2.6786,1.53059c2.6785,0 3.4438,0.76529 3.4438,4.2091l0,55.10094c0,2.67852 -0.7653,3.06117 -3.0612,3.44381c-1.5306,0 -2.2959,0.7653 -2.2959,2.29587c0,3.82646 13.3925,6.88763 23.3414,6.88763c16.071,0 24.8719,-10.33144 24.8719,-26.78519c0,-11.47936 -4.2091,-23.72401 -19.1322,-23.72401c-5.7397,0 -11.0968,2.29586 -11.0968,4.97438c0,0.7653 0.7653,1.53059 1.9132,1.53059c1.9133,0 3.0612,-1.53059 6.8877,-1.53059c6.1224,0 9.9487,6.50498 9.9487,18.36699c0,14.92317 -4.5916,21.0455 -12.2446,21.0455c-6.1224,0 -8.8009,-1.91322 -8.8009,-9.18349l0,-62.37121l0,0zm-47.4479,76.14644c1.9132,0 2.6785,-1.14793 2.6785,-2.29587c0,-0.76528 -0.3827,-1.53058 -1.9133,-1.91322l-1.5305,0c-1.9133,-0.38265 -3.0612,-0.7653 -3.0612,-3.82646l0,-37.8819c0,-2.67851 -0.7653,-3.06116 -1.9133,-3.06116c-1.1479,0 -2.6785,0.38265 -4.2091,1.14792l-8.0356,3.82646c-1.5306,0.7653 -1.9132,1.14795 -1.9132,1.91324c0,1.14793 0.7653,1.91322 2.2958,1.91322c2.6786,0 3.4439,0.7653 3.4439,4.20909l0,17.98434c0,9.18349 -3.8265,12.6273 -9.566,12.6273c-5.7397,0 -8.4183,-1.91322 -8.4183,-11.09671l0,-29.4637c0,-2.67851 -1.1479,-3.06116 -2.2959,-3.06116c-1.1479,0 -2.6785,0.38265 -4.2091,1.14792l-8.0356,3.82646c-1.5306,0.7653 -1.9132,1.14795 -1.9132,1.91324c0,1.14793 0.7653,1.91322 2.2958,1.91322c2.6786,0 3.4439,0.7653 3.4439,4.20909l0,21.8108c0,11.09673 5.7397,14.92317 15.3059,14.92317c6.5048,0 11.8619,-2.29587 14.1578,-5.35703l0.3826,0.38265l0,2.67851c0,0.7653 0.3827,1.53058 1.9133,1.53058l11.0968,0l0,0zm11.4792,-8.03555c0,3.06116 -1.1479,3.44381 -2.6785,3.82646l-1.5304,0c-1.5306,0.38264 -1.9133,1.14794 -1.9133,1.91322c0,1.14794 0.7653,2.29587 2.6786,2.29587l17.6016,0c1.9132,0 2.6785,-1.14793 2.6785,-2.29587c0,-0.76528 -0.3826,-1.53058 -1.9132,-1.91322l-1.5306,0c-1.9133,-0.38265 -2.6786,-0.7653 -2.6786,-3.82646l0,-37.8819c0,-2.67851 -1.1479,-3.06116 -2.2958,-3.06116c-1.148,0 -2.6786,0.38265 -4.2092,1.14792l-8.0354,3.82646c-1.5306,0.7653 -1.9132,1.14795 -1.9132,1.91324c0,1.14793 0.7653,1.91322 2.2959,1.91322c2.6783,0 3.4436,0.7653 3.4436,4.20909l0,27.93313l0,0zm-75.7637,22.57609c0,3.06116 -1.148,3.44379 -3.0612,3.82644l-1.5306,0c-1.5306,0.38265 -1.9132,1.14794 -1.9132,2.29589c0,1.14792 0.7653,1.91322 2.6785,1.91322l17.6016,0c1.9133,0 2.6786,-0.7653 2.6786,-1.91322c0,-1.14795 -0.3827,-1.91324 -1.9133,-2.29589l-1.5306,0c-1.5304,-0.38265 -2.6783,-0.76528 -2.6783,-3.82644l0,-57.39682c0,-4.20911 0.7653,-5.35704 0.7653,-6.50498c0,-1.53059 -0.7653,-2.29587 -2.2959,-2.29587c-2.2959,0 -3.8265,2.29587 -5.7397,5.73968c-2.6786,-1.91324 -6.8877,-3.06116 -13.0101,-3.06116c-16.4536,0 -23.7239,11.09671 -23.7239,26.40253c0,15.68847 8.8009,24.10667 20.2801,24.10667c4.9744,0 10.7141,-2.29587 10.7141,-5.35704c0,-1.53059 -1.1479,-2.29586 -2.2958,-2.29586c-1.5306,0 -1.9133,1.53057 -6.1224,1.53057c-7.6528,0 -11.0965,-5.35703 -11.0965,-17.98434c0,-11.86201 3.8264,-20.66285 12.6271,-20.66285c6.505,0 9.5662,3.06116 9.5662,10.71406l0,47.06541l0,0zm-50.1264,-32.90751c0,7.27025 -4.5918,13.00993 -13.3927,13.00993c-6.8877,0 -12.2447,-3.44381 -16.071,-7.6529c-3.0612,-3.44381 -2.6786,-5.35703 -5.7397,-5.35703c-1.9133,0 -2.6786,1.53057 -2.6786,3.06116c0,1.14793 0.3827,4.20909 2.6786,12.62729c0.7652,3.44381 1.5305,4.59175 3.4438,4.59175c2.6785,0 2.2959,-3.06116 5.3569,-3.06116c3.0611,0 4.9744,2.67852 14.5406,2.67852c16.4537,0 24.1066,-9.94879 24.1066,-21.8108c0,-10.33142 -5.7397,-17.21904 -19.8975,-27.16783c-13.7753,-9.18349 -15.3059,-11.09671 -15.3059,-16.45375c0,-5.35703 4.2091,-9.18349 11.0968,-9.18349c4.9744,0 9.9488,2.29587 13.3927,5.73968c2.6783,3.06117 3.4436,6.12233 6.1221,6.12233c1.5306,0 2.6786,-0.7653 2.6786,-2.29587c0,-1.53059 -1.148,-5.35705 -2.6786,-12.6273c-0.7653,-3.06117 -1.1479,-4.20911 -3.0611,-4.20911c-2.2957,0 -3.061,2.29589 -5.7396,2.29589c-2.2959,0 -5.7397,-1.53059 -11.8621,-1.53059c-14.1579,0 -22.1933,6.50497 -22.1933,17.21904c0,9.94879 4.5917,14.54052 16.4536,22.57609c10.7142,7.6529 18.7498,12.24466 18.7498,21.42815l0,0l0,0zm213.8985,-57.77947c0,-2.29587 -1.1479,-3.06117 -2.2956,-3.06117c-1.148,0 -2.2959,0.7653 -4.2092,1.53058l-8.0356,3.44381c-1.5306,0.76529 -1.9132,1.14794 -1.9132,2.29587c0,0.76529 0.7653,1.53059 2.2959,1.53059c2.6785,0 3.8264,0.76529 3.8264,4.2091l0,55.10094c0,2.67852 -0.7653,3.06117 -3.0611,3.44381c-1.9133,0 -2.6786,0.7653 -2.6786,2.29587c0,3.82646 13.3927,6.88763 23.3414,6.88763c16.4538,0 25.2545,-10.33144 25.2545,-26.78519c0,-11.47936 -4.2089,-23.72401 -19.1322,-23.72401c-5.7397,0 -11.0968,2.29586 -11.0968,4.97438c0,0.7653 0.7653,1.53059 1.9133,1.53059c1.5306,0 2.6785,-1.53059 6.505,-1.53059c6.505,0 10.3315,6.50498 10.3315,18.36699c0,14.92317 -4.5918,21.0455 -12.6274,21.0455c-5.7397,0 -8.4183,-1.91322 -8.4183,-9.18349l0,-62.37121l0,0zm-89.539,8.41819c0,3.44382 3.0612,6.50498 6.505,6.50498c3.4439,0 6.505,-3.06116 6.505,-6.50498c0,-3.44381 -3.0611,-6.50497 -6.505,-6.50497c-3.4438,0 -6.505,3.06116 -6.505,6.50497l0,0z"/>
   </g>
  </g>
  <rect id="svg_2" height="2" width="144" y="-9.114733" x="961" stroke-width="1.5" stroke="#000" fill="#fff"/>
 </g>
</svg>