<?xml version="1.0" encoding="UTF-8" standalone="no"?>
<!-- Created with Inkscape (http://www.inkscape.org/) -->
<svg
   xmlns:svg="http://www.w3.org/2000/svg"
   xmlns="http://www.w3.org/2000/svg"
   version="1.0"
   width="1098.4252"
   height="172.91338"
   id="svg2">
  <defs
     id="defs4" />
  <g
     transform="translate(-389.43359,19.165125)"
     id="layer1">
    <g
       transform="translate(17.71653,17.771825)"
       id="g9697">
      <path
         d="M 468.64121,45.119304 L 505.37516,-19.165125 L 431.52459,-19.165125 L 468.64121,45.119304 z M 493.51315,-11.129576 C 496.19167,-12.277501 497.72226,-13.425445 499.63548,-14.573389 L 500.01813,-14.190741 C 498.87019,-12.660149 497.33961,-11.512224 496.19167,-8.8337077 L 472.8503,31.344075 C 471.31973,33.639943 470.55443,35.553183 469.78914,37.466403 L 469.40649,37.083755 C 469.40649,34.787887 469.78914,32.492019 469.78914,29.813483 L 469.78914,3.0283013 L 493.51315,-11.129576 L 493.51315,-11.129576 z M 467.11062,3.0283013 L 467.11062,29.813483 C 467.11062,32.492019 467.49327,34.787887 467.49327,37.083755 L 467.11062,37.466403 C 466.34532,35.553183 465.58005,33.639943 464.04946,31.344075 L 441.09073,-8.8337077 C 439.56014,-11.512224 438.02957,-12.660149 436.88163,-14.190741 L 437.26427,-14.573389 C 439.17749,-13.425445 440.70809,-12.277501 443.3866,-11.129576 L 467.11062,3.0283013 L 467.11062,3.0283013 z M 485.4776,38.614347 C 482.79909,40.144919 481.2685,41.292863 479.35528,42.440788 L 478.97263,42.05814 C 480.12057,40.527567 481.65114,38.996976 482.79909,36.318459 L 506.14046,-3.4766557 C 507.67105,-5.7725437 508.43633,-8.0684117 509.20162,-9.5989847 L 509.58427,-9.5989847 C 509.58427,-7.3031157 509.20162,-4.6245997 509.20162,-2.3287317 L 509.20162,24.839098 L 485.4776,38.614347 z M 428.08078,24.839098 L 428.08078,-2.3287317 C 428.08078,-4.6245997 427.69813,-7.3031157 427.69813,-9.5989847 L 428.08078,-9.5989847 C 428.46343,-8.0684117 429.22872,-5.7725437 430.7593,-3.4766557 L 454.10067,36.318459 C 455.63126,38.996976 456.7792,40.527567 457.92713,42.05814 L 457.54448,42.440788 C 456.01391,41.292863 454.10067,40.144919 451.42215,38.614347 L 428.08078,24.839098 z M 511.88014,24.839098 L 511.88014,-2.3287317 C 511.88014,-4.6245997 511.49749,-7.3031157 511.49749,-9.5989847 L 511.88014,-9.5989847 C 512.64543,-8.0684117 513.41073,-5.7725437 514.9413,-3.4766557 L 537.90003,36.318459 C 539.43062,38.996976 540.96119,40.527567 542.10913,42.05814 L 541.72649,42.440788 C 539.81326,41.292863 538.28267,40.144919 535.60416,38.614347 L 511.88014,24.839098 L 511.88014,24.839098 z M 401.2956,38.614347 C 398.61708,40.144919 397.08649,41.292863 395.17327,42.440788 L 395.17327,42.05814 C 395.93857,40.527567 397.46914,38.996976 398.99973,36.318459 L 422.3411,-3.4766557 C 423.48904,-5.7725437 424.25432,-8.0684117 425.01962,-9.5989847 L 425.40226,-9.5989847 C 425.40226,-7.3031157 425.01962,-4.6245997 425.01962,-2.3287317 L 425.01962,24.839098 L 401.2956,38.614347 L 401.2956,38.614347 z M 469.78914,96.011152 L 469.78914,68.843322 C 469.78914,66.547453 469.40649,63.868937 469.40649,61.573069 L 469.78914,61.573069 C 470.55443,63.103641 471.31973,65.399529 472.8503,67.695397 L 496.19167,107.87316 C 497.33961,110.16905 498.87019,111.69962 500.01813,113.23021 L 499.63548,113.61286 C 497.72226,112.46492 496.19167,111.31697 493.51315,109.7864 L 469.78914,96.011152 L 469.78914,96.011152 z M 443.3866,109.7864 C 440.70809,111.31697 439.17749,112.46492 437.26427,113.61286 L 436.88163,113.23021 C 438.02957,111.69962 439.56014,110.16905 441.09073,107.87316 L 464.04946,67.695397 C 465.58005,65.399529 466.34532,63.103641 467.11062,61.573069 L 467.49327,61.573069 C 467.49327,63.868937 467.11062,66.547453 467.11062,68.843322 L 467.11062,96.011152 L 443.3866,109.7864 L 443.3866,109.7864 z M 426.55021,116.29138 L 463.28416,52.006928 L 389.43359,52.006928 L 426.55021,116.29138 z M 451.42215,60.425125 C 454.10067,58.894553 456.01391,57.746609 457.54448,56.598685 L 457.92713,56.981313 C 456.7792,58.511905 455.63126,60.042477 454.10067,62.338365 L 430.7593,102.51613 C 429.22872,104.812 428.46343,107.10788 428.08078,108.63846 L 427.69813,108.25581 C 427.69813,106.34259 428.08078,103.66407 428.08078,101.3682 L 428.08078,74.200374 L 451.42215,60.425125 z M 425.01962,74.200374 L 425.01962,101.3682 C 425.01962,103.66407 425.40226,106.34259 425.40226,108.25581 L 425.01962,108.63846 C 424.25432,107.10788 423.48904,104.812 422.3411,102.51613 L 398.99973,62.338365 C 397.46914,60.042477 395.93857,58.511905 395.17327,56.981313 L 395.17327,56.598685 C 397.08649,57.746609 398.61708,58.894553 401.2956,60.425125 L 425.01962,74.200374 L 425.01962,74.200374 z M 510.34957,116.29138 L 547.46617,52.006928 L 473.6156,52.006928 L 510.34957,116.29138 z M 509.20162,74.200374 L 509.20162,101.3682 C 509.20162,103.66407 509.58427,106.34259 509.58427,108.25581 L 509.20162,108.63846 C 508.43633,107.10788 507.67105,104.812 506.14046,102.51613 L 482.79909,62.338365 C 481.65114,60.042477 480.12057,58.511905 478.97263,56.981313 L 479.35528,56.598685 C 481.2685,57.746609 482.79909,58.894553 485.4776,60.425125 L 509.20162,74.200374 z M 535.60416,60.425125 C 538.28267,58.894553 539.81326,57.746609 541.72649,56.598685 L 542.10913,56.981313 C 540.96119,58.511905 539.43062,60.042477 537.90003,62.338365 L 514.9413,102.51613 C 513.41073,104.812 512.64543,107.10788 511.88014,108.63846 L 511.49749,108.25581 C 511.49749,106.34259 511.88014,103.66407 511.88014,101.3682 L 511.88014,74.200374 L 535.60416,60.425125 L 535.60416,60.425125 z M 490.45199,-16.103961 C 493.51315,-16.103961 495.80904,-16.486609 498.10491,-16.869257 L 498.10491,-16.486609 C 496.57432,-15.721313 494.27845,-14.956037 491.98258,-13.425445 L 468.64121,0.34978429 L 444.91717,-13.425445 C 442.62131,-14.956037 440.32544,-15.721313 438.79487,-16.486609 L 438.79487,-16.869257 C 441.09073,-16.486609 443.3866,-16.103961 446.44777,-16.103961 L 490.45199,-16.103961 L 490.45199,-16.103961 z M 448.74363,55.068093 C 451.42215,55.068093 453.71804,54.685445 456.01391,54.685445 L 456.01391,54.685445 C 454.48331,55.450741 452.18745,56.216037 449.89158,57.746609 L 426.55021,71.521857 L 402.82619,57.746609 C 400.91295,56.216037 398.23443,55.450741 396.70386,54.685445 L 396.70386,54.685445 C 398.99973,54.685445 401.2956,55.068093 404.35676,55.068093 L 448.74363,55.068093 z M 532.54299,55.068093 C 535.60416,55.068093 537.90003,54.685445 540.19591,54.685445 L 540.19591,54.685445 C 538.66532,55.450741 536.36945,56.216037 534.07358,57.746609 L 510.34957,71.521857 L 487.00818,57.746609 C 484.71231,56.216037 482.41644,55.450741 480.88585,54.685445 L 480.88585,54.685445 C 483.18174,54.685445 485.4776,55.068093 488.53877,55.068093 L 532.54299,55.068093 z M 404.35676,43.971379 C 401.2956,43.971379 398.99973,43.971379 396.70386,44.354028 L 396.70386,43.971379 C 398.23443,43.206084 400.91295,42.440788 402.82619,41.292863 L 426.55021,27.517615 L 449.89158,41.292863 C 452.18745,42.440788 454.48331,43.206084 456.01391,43.971379 L 456.01391,44.354028 C 453.71804,43.971379 451.42215,43.971379 448.74363,43.971379 L 404.35676,43.971379 z M 389.43359,47.032544 L 463.28416,47.032544 L 426.55021,-17.251905 L 389.43359,47.032544 z M 488.53877,43.971379 C 485.4776,43.971379 483.18174,43.971379 480.88585,44.354028 L 480.88585,43.971379 C 482.41644,43.206084 484.71231,42.440788 487.00818,41.292863 L 510.34957,27.517615 L 534.07358,41.292863 C 536.36945,42.440788 538.66532,43.206084 540.19591,43.971379 L 540.19591,44.354028 C 537.90003,43.971379 535.60416,43.971379 532.54299,43.971379 L 488.53877,43.971379 z M 473.6156,47.032544 L 547.46617,47.032544 L 510.34957,-17.251905 L 473.6156,47.032544 L 473.6156,47.032544 z M 431.52459,118.2046 L 505.37516,118.2046 L 468.64121,53.920149 L 431.52459,118.2046 z M 446.44777,115.14343 C 443.3866,115.14343 441.09073,115.14343 438.79487,115.52608 L 438.79487,115.14343 C 440.32544,114.76079 442.62131,113.99549 444.91717,112.46492 L 468.64121,98.689687 L 491.98258,112.46492 C 494.27845,113.99549 496.57432,114.76079 498.10491,115.14343 L 498.10491,115.52608 C 495.80904,115.14343 493.51315,115.14343 490.45199,115.14343 L 446.44777,115.14343 L 446.44777,115.14343 z "
         style="fill:#2e4b7d;fill-opacity:1;fill-rule:evenodd"
         id="path9582" />
      <path
         d="M 740.31951,73.05243 C 740.31951,76.87889 737.64098,79.557406 733.0492,79.557406 C 728.45742,79.557406 724.2483,77.644186 722.33506,74.200374 C 720.03936,70.373914 719.27407,69.608618 717.74348,69.608618 C 716.21288,69.608618 715.44759,71.139209 715.44759,72.669782 C 715.44759,73.817726 716.21288,76.496242 716.97818,81.470626 C 717.36083,84.149143 718.12612,85.297087 719.65672,85.297087 C 721.56996,85.297087 721.56996,83.383866 723.483,83.383866 C 725.77889,83.383866 728.07478,85.297087 734.19714,85.297087 C 741.46745,85.297087 750.65101,80.70535 750.65101,70.756561 C 750.65101,55.450741 727.30948,53.154872 727.30948,44.736676 C 727.30948,42.05814 729.60537,39.762271 733.43185,39.762271 C 736.87568,39.762271 740.31951,41.292863 742.99805,44.736676 C 744.14599,46.649896 744.91129,48.180468 746.82453,48.180468 C 748.35512,48.180468 749.12041,47.79782 749.12041,46.267248 C 749.12041,45.119304 748.73777,43.206084 747.58982,37.849051 C 746.82453,35.170535 746.44188,34.405239 744.91129,34.405239 C 744.14599,34.405239 743.38069,34.787887 742.99805,35.170535 C 742.6154,35.553183 742.23275,36.318459 741.46745,36.318459 C 740.31951,36.318459 739.55421,35.935811 738.40627,35.553183 C 736.49303,34.787887 734.57979,34.787887 731.90126,34.787887 C 721.56996,34.787887 716.59553,40.144919 716.59553,45.8846 C 716.59553,60.042477 740.31951,62.721013 740.31951,73.05243 L 740.31951,73.05243 L 740.31951,73.05243 z M 779.73206,60.042477 C 779.73206,75.348298 789.68071,85.297087 804.98663,85.297087 C 819.9097,85.297087 830.24119,75.348298 830.24119,60.042477 C 830.24119,44.354028 819.9097,34.787887 804.98663,34.787887 C 789.68071,34.787887 779.73206,44.354028 779.73206,60.042477 L 779.73206,60.042477 z M 597.21009,68.460693 C 597.21009,73.435078 596.82744,73.817726 594.53157,74.200374 C 592.61833,74.583022 591.85304,75.348298 591.85304,76.496242 C 591.85304,81.470626 605.62829,85.297087 619.78616,85.297087 C 640.44902,85.297087 649.63251,74.583022 649.63251,60.425125 C 649.63251,49.71106 643.51018,41.675511 630.50025,40.527567 L 630.50025,40.144919 C 640.44902,38.231699 646.1887,31.344075 646.1887,23.308526 C 646.1887,10.298573 635.85728,3.7935973 620.16881,3.7935973 C 605.24564,3.7935973 592.23568,8.7680013 592.23568,12.594441 C 592.23568,13.742385 592.61833,14.125033 594.53157,14.507681 C 596.82744,14.89031 597.21009,15.272958 597.21009,18.334122 L 597.21009,68.460693 L 597.21009,68.460693 z M 609.45475,19.864714 C 609.45475,12.211793 612.51591,9.5332773 620.16881,9.5332773 C 629.3523,9.5332773 633.56141,16.038254 633.56141,24.073802 C 633.56141,33.639943 627.43908,37.466403 620.16881,37.849051 L 617.49029,38.231699 C 615.57707,38.231699 614.04648,38.996976 614.04648,41.292863 C 614.04648,42.823436 615.57707,43.971379 617.49029,43.971379 L 620.16881,43.971379 C 631.26552,43.971379 636.23993,52.006928 636.23993,61.573069 C 636.23993,70.373914 631.26552,79.174758 620.16881,79.174758 C 610.98532,79.174758 609.45475,75.730946 609.45475,68.460693 L 609.45475,19.864714 z M 658.816,75.730946 C 658.816,78.79211 657.66808,79.174758 655.75484,79.557406 L 654.22427,79.557406 C 653.07632,79.940054 652.31103,80.70535 652.31103,81.470626 C 652.31103,82.61857 653.07632,83.766495 654.98954,83.766495 L 672.97386,83.766495 C 674.8871,83.766495 675.6524,82.61857 675.6524,81.470626 C 675.6524,80.70535 674.8871,79.940054 673.73916,79.557406 L 671.82592,79.557406 C 670.29532,79.174758 669.14738,78.79211 669.14738,75.730946 L 669.14738,55.450741 C 669.14738,46.649896 671.82592,43.206084 676.03504,43.206084 C 677.18299,43.206084 678.33093,43.588732 679.09623,44.354028 C 680.24417,45.119304 681.00947,45.501952 682.15741,45.501952 C 682.92271,45.501952 684.07065,44.354028 685.21859,43.206084 C 686.74919,41.292863 687.51448,40.144919 687.51448,39.379623 C 687.51448,37.466403 684.07065,34.787887 680.24417,34.787887 C 674.8871,34.787887 671.44327,37.849051 669.53003,42.440788 L 669.14738,42.440788 L 669.14738,37.849051 C 669.14738,35.170535 668.38208,34.787887 666.85149,34.787887 C 665.70355,34.787887 664.5556,35.170535 662.64236,35.935811 L 654.98954,39.762271 C 653.07632,40.527567 652.69367,40.910215 652.69367,41.675511 C 652.69367,42.823436 653.45897,43.588732 655.37219,43.588732 C 657.66808,43.588732 658.816,44.354028 658.816,47.79782 L 658.816,75.730946 z M 791.2113,60.042477 C 791.2113,48.180468 796.56837,40.144919 804.98663,40.144919 C 813.78734,40.144919 818.76176,48.180468 818.76176,60.042477 C 818.76176,71.904486 813.78734,79.557406 804.98663,79.557406 C 796.56837,79.557406 791.2113,71.904486 791.2113,60.042477 L 791.2113,60.042477 z M 769.78321,44.354028 C 769.78321,41.675511 770.16586,41.292863 772.84439,41.292863 L 777.05352,41.292863 C 778.96676,41.292863 779.73206,40.144919 779.73206,38.614347 C 779.73206,36.701107 778.96676,35.935811 777.05352,35.935811 L 769.78321,35.935811 L 769.78321,17.186197 C 769.78321,15.655606 769.40056,14.89031 768.25262,14.89031 C 767.48732,14.89031 766.72203,15.655606 765.57408,16.038254 L 760.98231,18.334122 C 759.83436,19.099418 759.45171,19.482066 759.45171,21.012638 L 759.45171,35.935811 L 754.85994,35.935811 C 752.9467,35.935811 751.79895,36.701107 751.79895,38.614347 C 751.79895,40.144919 752.56405,40.144919 754.47729,40.144919 L 756.39053,40.144919 C 758.68642,40.144919 759.45171,40.527567 759.45171,43.206084 L 759.45171,73.817726 C 759.45171,81.087979 761.36495,85.297087 769.40056,85.297087 C 775.90558,85.297087 781.26265,81.853274 781.26265,79.557406 C 781.26265,78.026814 780.49735,76.87889 779.34941,76.87889 C 777.43617,76.87889 775.90558,78.79211 773.22704,78.79211 C 770.93115,78.79211 769.78321,77.644186 769.78321,73.435078 L 769.78321,44.354028 L 769.78321,44.354028 z M 696.31519,75.730946 C 696.31519,78.79211 695.54989,79.174758 693.63665,79.557406 L 692.10626,79.557406 C 690.57567,79.940054 690.19302,80.70535 690.19302,81.470626 C 690.19302,82.61857 690.95831,83.766495 692.87136,83.766495 L 710.47316,83.766495 C 712.3864,83.766495 713.1517,82.61857 713.1517,81.470626 C 713.1517,80.70535 712.76905,79.940054 711.23846,79.557406 L 709.70787,79.557406 C 708.17728,79.174758 707.02933,78.79211 707.02933,75.730946 L 707.02933,37.849051 C 707.02933,35.170535 705.88139,34.787887 704.73345,34.787887 C 703.5855,34.787887 702.43756,35.170535 700.52432,35.935811 L 692.48871,39.762271 C 690.95831,40.527567 690.57567,40.910215 690.57567,41.675511 C 690.57567,42.823436 691.34096,43.588732 692.87136,43.588732 C 695.54989,43.588732 696.31519,44.354028 696.31519,47.79782 L 696.31519,75.730946 L 696.31519,75.730946 z M 839.04189,75.730946 C 839.04189,78.79211 837.89399,79.174758 836.36339,79.557406 L 834.83299,79.557406 C 833.30239,79.940054 832.91969,80.70535 832.91969,81.470626 C 832.91969,82.61857 833.68499,83.766495 835.59809,83.766495 L 853.19989,83.766495 C 855.11309,83.766495 855.87839,82.61857 855.87839,81.470626 C 855.87839,80.70535 855.49579,79.940054 853.96519,79.557406 L 852.43459,79.557406 C 850.52139,79.174758 849.75609,78.79211 849.75609,75.730946 L 849.75609,7.6200573 C 849.75609,5.3241883 848.60809,4.5588933 847.46019,4.5588933 C 846.31219,4.5588933 844.78159,5.3241883 843.25099,6.0894653 L 835.21559,9.5332773 C 833.68499,10.298573 833.30239,10.681221 833.30239,11.829145 C 833.30239,12.594441 834.06769,13.359737 835.59809,13.359737 C 838.27659,13.359737 839.04189,14.125033 839.04189,17.568845 L 839.04189,75.730946 L 839.04189,75.730946 z M 694.7846,16.038254 C 694.7846,19.482066 697.84578,22.54323 701.28961,22.54323 C 704.73345,22.54323 707.79463,19.482066 707.79463,16.038254 C 707.79463,12.594441 704.73345,9.5332773 701.28961,9.5332773 C 697.84578,9.5332773 694.7846,12.594441 694.7846,16.038254 L 694.7846,16.038254 z "
         style="fill:#2e4b7d;fill-opacity:1;fill-rule:evenodd"
         id="path9584" />
      <path
         d="M 1073.6005,75.730946 C 1073.6005,78.79211 1072.4525,79.174758 1070.9219,79.557406 L 1069.3913,79.557406 C 1067.8607,79.940054 1067.4781,80.70535 1067.4781,81.470626 C 1067.4781,82.61857 1068.2434,83.766495 1070.1566,83.766495 L 1087.7584,83.766495 C 1089.6717,83.766495 1090.437,82.61857 1090.437,81.470626 C 1090.437,80.70535 1090.0543,79.940054 1088.5237,79.557406 L 1086.9931,79.557406 C 1085.0799,79.174758 1083.932,78.79211 1083.932,75.730946 L 1083.932,55.450741 C 1083.932,46.649896 1086.9931,43.206084 1090.8196,43.206084 C 1092.35,43.206084 1093.1153,43.588732 1094.2633,44.354028 C 1095.4112,45.119304 1096.1765,45.501952 1096.9418,45.501952 C 1098.0897,45.501952 1098.855,44.354028 1100.003,43.206084 C 1101.9162,41.292863 1102.2989,40.144919 1102.2989,39.379623 C 1102.2989,37.466403 1099.2377,34.787887 1095.0285,34.787887 C 1089.6717,34.787887 1086.6105,37.849051 1084.3146,42.440788 L 1083.932,42.440788 L 1083.932,37.849051 C 1083.932,35.170535 1083.1667,34.787887 1082.0187,34.787887 C 1080.8708,34.787887 1079.3402,35.170535 1077.8096,35.935811 L 1069.774,39.762271 C 1068.2434,40.527567 1067.8607,40.910215 1067.8607,41.675511 C 1067.8607,42.823436 1068.626,43.588732 1070.1566,43.588732 C 1072.8352,43.588732 1073.6005,44.354028 1073.6005,47.79782 L 1073.6005,75.730946 L 1073.6005,75.730946 z M 1127.1708,73.05243 C 1127.1708,76.87889 1124.4922,79.557406 1119.9007,79.557406 C 1115.3089,79.557406 1111.0998,77.644186 1109.1865,74.200374 C 1106.8906,70.373914 1106.1253,69.608618 1104.5947,69.608618 C 1103.0642,69.608618 1102.2989,71.139209 1102.2989,72.669782 C 1102.2989,73.817726 1103.0642,76.496242 1103.8295,81.470626 C 1104.2121,84.149143 1104.9774,85.297087 1106.508,85.297087 C 1108.4212,85.297087 1108.4212,83.383866 1110.3345,83.383866 C 1112.6304,83.383866 1114.9262,85.297087 1121.0486,85.297087 C 1128.3187,85.297087 1137.5023,80.70535 1137.5023,70.756561 C 1137.5023,55.450741 1114.1609,53.154872 1114.1609,44.736676 C 1114.1609,42.05814 1116.4568,39.762271 1120.2833,39.762271 C 1123.727,39.762271 1127.1708,41.292863 1129.8493,44.736676 C 1130.9973,46.649896 1131.7626,48.180468 1133.6758,48.180468 C 1135.2064,48.180468 1135.9717,47.79782 1135.9717,46.267248 C 1135.9717,45.119304 1135.589,43.206084 1134.4411,37.849051 C 1133.6758,35.170535 1133.2931,34.405239 1131.7626,34.405239 C 1130.9973,34.405239 1130.232,34.787887 1129.8493,35.170535 C 1129.4667,35.553183 1129.084,36.318459 1128.3187,36.318459 C 1127.1708,36.318459 1126.4055,36.318459 1125.2575,36.318459 C 1123.727,36.318459 1121.4313,34.787887 1118.7527,34.787887 C 1108.4212,34.787887 1103.4468,40.527567 1103.4468,47.032544 C 1103.4468,60.807773 1127.1708,63.486289 1127.1708,73.05243 L 1127.1708,73.05243 L 1127.1708,73.05243 z M 1057.9121,55.450741 C 1062.8863,52.389576 1064.4169,50.858985 1064.4169,48.180468 C 1064.4169,43.588732 1058.6774,34.787887 1045.6674,34.787887 C 1029.979,34.787887 1021.5607,45.8846 1021.5607,61.190421 C 1021.5607,76.113594 1031.892,85.297087 1045.6674,85.297087 C 1057.9121,85.297087 1065.9475,76.87889 1065.9475,74.200374 C 1065.9475,72.669782 1064.7996,71.904486 1063.6516,71.904486 C 1062.5037,71.904486 1060.9733,73.435078 1059.06,74.96565 C 1055.9988,78.026814 1052.1724,79.557406 1047.9632,79.557406 C 1038.0144,79.557406 1033.04,71.904486 1033.04,60.425125 C 1033.04,48.180468 1037.2491,40.144919 1044.9021,40.144919 C 1049.8765,40.144919 1052.9377,43.971379 1052.9377,48.180468 C 1052.9377,50.858985 1052.555,52.006928 1049.1112,53.920149 L 1039.545,60.042477 C 1037.6317,61.190421 1036.8664,62.338365 1036.8664,63.868937 C 1036.8664,65.016881 1038.0144,66.547453 1039.545,66.547453 C 1041.0756,66.547453 1041.8409,65.782157 1043.7541,64.634233 L 1057.9121,55.450741 L 1057.9121,55.450741 z M 899.11429,73.435078 C 899.11429,76.87889 898.34909,78.409462 894.90519,78.79211 C 892.60929,78.79211 891.46139,79.557406 891.46139,81.470626 C 891.46139,82.61857 892.60929,83.766495 894.90519,83.766495 L 910.97639,83.766495 C 913.27229,83.766495 914.42029,82.61857 914.42029,81.470626 C 914.42029,79.557406 913.27229,78.79211 910.97639,78.79211 C 907.53259,78.409462 906.76729,76.87889 906.76729,73.435078 L 906.76729,23.691174 L 907.53259,23.691174 L 926.28219,60.807773 C 928.19539,64.634233 929.34329,65.782157 930.87389,65.782157 C 932.02189,65.782157 933.55249,64.634233 935.46569,60.807773 L 954.21529,21.777934 L 954.59789,21.777934 L 954.59789,73.435078 C 954.59789,76.87889 953.83259,78.409462 950.38879,78.79211 C 948.09289,78.79211 946.94499,79.557406 946.94499,81.470626 C 946.94499,82.61857 948.09289,83.766495 950.38879,83.766495 L 971.05179,83.766495 C 973.73029,83.766495 974.49559,82.61857 974.49559,81.470626 C 974.49559,79.557406 973.73029,78.79211 971.05179,78.79211 C 967.99059,78.409462 967.22529,76.87889 967.22529,73.435078 L 967.22529,16.038254 C 967.22529,12.594441 967.99059,11.063869 971.05179,10.681221 C 973.73029,10.681221 974.49559,9.9159253 974.49559,8.0027053 C 974.49559,6.8547613 973.73029,5.7068363 971.05179,5.7068363 L 959.57229,5.7068363 C 955.36319,5.7068363 954.98059,6.4721133 953.83259,8.3853533 L 933.55249,50.093708 L 911.35909,8.7680013 C 909.82849,6.0894653 909.44579,5.7068363 906.00199,5.7068363 L 894.90519,5.7068363 C 892.60929,5.7068363 891.46139,6.8547613 891.46139,8.0027053 C 891.46139,9.9159253 892.60929,10.681221 894.90519,10.681221 C 898.34909,11.063869 899.11429,12.594441 899.11429,16.038254 L 899.11429,73.435078 L 899.11429,73.435078 z M 991.33169,47.79782 C 990.18379,45.8846 989.41849,43.588732 989.41849,42.440788 C 989.41849,40.910215 990.56639,40.144919 992.09699,40.144919 C 994.01029,39.762271 994.39289,38.996976 994.39289,38.231699 C 994.39289,37.083755 993.24499,36.318459 991.33169,36.318459 L 974.87809,36.318459 C 972.96499,36.318459 971.81709,36.701107 971.81709,38.231699 C 971.81709,38.996976 972.19969,39.762271 973.73029,40.144919 C 976.02599,40.527567 977.93919,41.675511 979.85249,46.267248 L 996.30619,82.235922 C 992.09699,89.123547 986.73999,97.924391 983.67879,102.51613 C 982.91349,103.66407 982.14819,104.42937 982.14819,105.57729 C 982.14819,106.34259 982.91349,106.34259 983.67879,106.34259 L 989.80109,106.34259 C 991.33169,106.34259 992.47969,106.34259 993.24499,104.42937 C 994.01029,101.75083 996.30619,95.628523 1001.6632,83.383866 L 1016.5863,45.501952 C 1018.1169,42.05814 1018.8822,41.292863 1021.1781,40.527567 C 1023.0913,39.762271 1023.8566,39.379623 1023.8566,38.231699 C 1023.8566,36.701107 1023.0913,36.318459 1021.9434,36.318459 L 1008.168,36.318459 C 1006.2548,36.318459 1005.4895,36.701107 1005.4895,38.231699 C 1005.4895,39.379623 1006.2548,40.144919 1007.7854,40.144919 C 1009.6986,40.527567 1011.2292,41.292863 1011.2292,42.823436 C 1011.2292,43.971379 1011.2292,45.119304 1010.0813,47.415192 L 1001.2806,70.373914 L 991.33169,47.79782 L 991.33169,47.79782 z M 885.72169,63.486289 C 888.01759,63.486289 888.40019,62.721013 888.40019,61.190421 L 888.40019,58.129257 C 888.40019,56.216037 888.01759,55.833389 885.72169,55.833389 L 862.76299,55.833389 C 860.84969,55.833389 860.46709,56.216037 860.46709,58.129257 L 860.46709,61.190421 C 860.46709,62.721013 860.84969,63.486289 862.76299,63.486289 L 885.72169,63.486289 z "
         style="fill:#2e4b7d;fill-opacity:1;fill-rule:evenodd"
         id="path9586" />
      <path
         d="M 1367.8611,7.6200573 C 1367.8611,5.3241883 1367.0958,4.5588933 1365.5652,4.5588933 C 1364.4173,4.5588933 1363.2693,5.3241883 1361.7387,6.0894653 L 1353.7033,9.5332773 C 1351.7901,10.298573 1351.4074,10.681221 1351.4074,11.829145 C 1351.4074,12.594441 1352.1727,13.359737 1354.086,13.359737 C 1356.7645,13.359737 1357.5298,14.125033 1357.5298,17.568845 L 1357.5298,72.669782 C 1357.5298,75.348298 1356.7645,75.730946 1354.4686,76.113594 C 1352.938,76.113594 1352.1727,76.87889 1352.1727,78.409462 C 1352.1727,82.235922 1365.5652,85.297087 1375.5141,85.297087 C 1391.5851,85.297087 1400.386,74.96565 1400.386,58.511905 C 1400.386,47.032544 1396.1769,34.787887 1381.2538,34.787887 C 1375.5141,34.787887 1370.157,37.083755 1370.157,39.762271 C 1370.157,40.527567 1370.9223,41.292863 1372.0702,41.292863 C 1373.9835,41.292863 1375.1314,39.762271 1378.9579,39.762271 C 1385.0803,39.762271 1388.9066,46.267248 1388.9066,58.129257 C 1388.9066,73.05243 1384.315,79.174758 1376.662,79.174758 C 1370.5396,79.174758 1367.8611,77.261538 1367.8611,69.991266 L 1367.8611,7.6200573 L 1367.8611,7.6200573 z M 1320.4132,83.766495 C 1322.3264,83.766495 1323.0917,82.61857 1323.0917,81.470626 C 1323.0917,80.70535 1322.709,79.940054 1321.1784,79.557406 L 1319.6479,79.557406 C 1317.7346,79.174758 1316.5867,78.79211 1316.5867,75.730946 L 1316.5867,37.849051 C 1316.5867,35.170535 1315.8214,34.787887 1314.6734,34.787887 C 1313.5255,34.787887 1311.9949,35.170535 1310.4643,35.935811 L 1302.4287,39.762271 C 1300.8981,40.527567 1300.5155,40.910215 1300.5155,41.675511 C 1300.5155,42.823436 1301.2808,43.588732 1302.8113,43.588732 C 1305.4899,43.588732 1306.2552,44.354028 1306.2552,47.79782 L 1306.2552,65.782157 C 1306.2552,74.96565 1302.4287,78.409462 1296.6892,78.409462 C 1290.9495,78.409462 1288.2709,76.496242 1288.2709,67.312749 L 1288.2709,37.849051 C 1288.2709,35.170535 1287.123,34.787887 1285.975,34.787887 C 1284.8271,34.787887 1283.2965,35.170535 1281.7659,35.935811 L 1273.7303,39.762271 C 1272.1997,40.527567 1271.8171,40.910215 1271.8171,41.675511 C 1271.8171,42.823436 1272.5824,43.588732 1274.1129,43.588732 C 1276.7915,43.588732 1277.5568,44.354028 1277.5568,47.79782 L 1277.5568,69.608618 C 1277.5568,80.70535 1283.2965,84.531791 1292.8627,84.531791 C 1299.3675,84.531791 1304.7246,82.235922 1307.0205,79.174758 L 1307.4031,79.557406 L 1307.4031,82.235922 C 1307.4031,83.001218 1307.7858,83.766495 1309.3164,83.766495 L 1320.4132,83.766495 L 1320.4132,83.766495 z M 1331.8924,75.730946 C 1331.8924,78.79211 1330.7445,79.174758 1329.2139,79.557406 L 1327.6835,79.557406 C 1326.1529,79.940054 1325.7702,80.70535 1325.7702,81.470626 C 1325.7702,82.61857 1326.5355,83.766495 1328.4488,83.766495 L 1346.0504,83.766495 C 1347.9636,83.766495 1348.7289,82.61857 1348.7289,81.470626 C 1348.7289,80.70535 1348.3463,79.940054 1346.8157,79.557406 L 1345.2851,79.557406 C 1343.3718,79.174758 1342.6065,78.79211 1342.6065,75.730946 L 1342.6065,37.849051 C 1342.6065,35.170535 1341.4586,34.787887 1340.3107,34.787887 C 1339.1627,34.787887 1337.6321,35.170535 1336.1015,35.935811 L 1328.0661,39.762271 C 1326.5355,40.527567 1326.1529,40.910215 1326.1529,41.675511 C 1326.1529,42.823436 1326.9182,43.588732 1328.4488,43.588732 C 1331.1271,43.588732 1331.8924,44.354028 1331.8924,47.79782 L 1331.8924,75.730946 L 1331.8924,75.730946 z M 1256.1287,98.307039 C 1256.1287,101.3682 1254.9807,101.75083 1253.0675,102.13348 L 1251.5369,102.13348 C 1250.0063,102.51613 1249.6237,103.28142 1249.6237,104.42937 C 1249.6237,105.57729 1250.389,106.34259 1252.3022,106.34259 L 1269.9038,106.34259 C 1271.8171,106.34259 1272.5824,105.57729 1272.5824,104.42937 C 1272.5824,103.28142 1272.1997,102.51613 1270.6691,102.13348 L 1269.1385,102.13348 C 1267.6081,101.75083 1266.4602,101.3682 1266.4602,98.307039 L 1266.4602,40.910215 C 1266.4602,36.701107 1267.2255,35.553183 1267.2255,34.405239 C 1267.2255,32.874647 1266.4602,32.109371 1264.9296,32.109371 C 1262.6337,32.109371 1261.1031,34.405239 1259.1899,37.849051 C 1256.5113,35.935811 1252.3022,34.787887 1246.1798,34.787887 C 1229.7262,34.787887 1222.4559,45.8846 1222.4559,61.190421 C 1222.4559,76.87889 1231.2568,85.297087 1242.736,85.297087 C 1247.7104,85.297087 1253.4501,83.001218 1253.4501,79.940054 C 1253.4501,78.409462 1252.3022,77.644186 1251.1543,77.644186 C 1249.6237,77.644186 1249.241,79.174758 1245.0319,79.174758 C 1237.3791,79.174758 1233.9354,73.817726 1233.9354,61.190421 C 1233.9354,49.328412 1237.7618,40.527567 1246.5625,40.527567 C 1253.0675,40.527567 1256.1287,43.588732 1256.1287,51.241633 L 1256.1287,98.307039 L 1256.1287,98.307039 z M 1206.0023,65.399529 C 1206.0023,72.669782 1201.4105,78.409462 1192.6096,78.409462 C 1185.7219,78.409462 1180.3649,74.96565 1176.5386,70.756561 C 1173.4774,67.312749 1173.86,65.399529 1170.7989,65.399529 C 1168.8856,65.399529 1168.1203,66.930101 1168.1203,68.460693 C 1168.1203,69.608618 1168.503,72.669782 1170.7989,81.087979 C 1171.5641,84.531791 1172.3294,85.679735 1174.2427,85.679735 C 1176.9212,85.679735 1176.5386,82.61857 1179.5996,82.61857 C 1182.6607,82.61857 1184.574,85.297087 1194.1402,85.297087 C 1210.5939,85.297087 1218.2468,75.348298 1218.2468,63.486289 C 1218.2468,53.154872 1212.5071,46.267248 1198.3493,36.318459 C 1184.574,27.134967 1183.0434,25.221746 1183.0434,19.864714 C 1183.0434,14.507681 1187.2525,10.681221 1194.1402,10.681221 C 1199.1146,10.681221 1204.089,12.977089 1207.5329,16.420902 C 1210.2112,19.482066 1210.9765,22.54323 1213.655,22.54323 C 1215.1856,22.54323 1216.3336,21.777934 1216.3336,20.247362 C 1216.3336,18.71677 1215.1856,14.89031 1213.655,7.6200573 C 1212.8897,4.5588933 1212.5071,3.4109493 1210.5939,3.4109493 C 1208.2982,3.4109493 1207.5329,5.7068363 1204.8543,5.7068363 C 1202.5584,5.7068363 1199.1146,4.1762453 1192.9922,4.1762453 C 1178.8343,4.1762453 1170.7989,10.681221 1170.7989,21.395286 C 1170.7989,31.344075 1175.3906,35.935811 1187.2525,43.971379 C 1197.9667,51.624281 1206.0023,56.216037 1206.0023,65.399529 L 1206.0023,65.399529 L 1206.0023,65.399529 z M 1419.9008,7.6200573 C 1419.9008,5.3241883 1418.7529,4.5588933 1417.6052,4.5588933 C 1416.4572,4.5588933 1415.3093,5.3241883 1413.396,6.0894653 L 1405.3604,9.5332773 C 1403.8298,10.298573 1403.4472,10.681221 1403.4472,11.829145 C 1403.4472,12.594441 1404.2125,13.359737 1405.7431,13.359737 C 1408.4216,13.359737 1409.5695,14.125033 1409.5695,17.568845 L 1409.5695,72.669782 C 1409.5695,75.348298 1408.8042,75.730946 1406.5084,76.113594 C 1404.5951,76.113594 1403.8298,76.87889 1403.8298,78.409462 C 1403.8298,82.235922 1417.2225,85.297087 1427.1712,85.297087 C 1443.625,85.297087 1452.4257,74.96565 1452.4257,58.511905 C 1452.4257,47.032544 1448.2168,34.787887 1433.2935,34.787887 C 1427.5538,34.787887 1422.1967,37.083755 1422.1967,39.762271 C 1422.1967,40.527567 1422.962,41.292863 1424.11,41.292863 C 1425.6406,41.292863 1426.7885,39.762271 1430.615,39.762271 C 1437.12,39.762271 1440.9465,46.267248 1440.9465,58.129257 C 1440.9465,73.05243 1436.3547,79.174758 1428.3191,79.174758 C 1422.5794,79.174758 1419.9008,77.261538 1419.9008,69.991266 L 1419.9008,7.6200573 L 1419.9008,7.6200573 z M 1330.3618,16.038254 C 1330.3618,19.482066 1333.423,22.54323 1336.8668,22.54323 C 1340.3107,22.54323 1343.3718,19.482066 1343.3718,16.038254 C 1343.3718,12.594441 1340.3107,9.5332773 1336.8668,9.5332773 C 1333.423,9.5332773 1330.3618,12.594441 1330.3618,16.038254 L 1330.3618,16.038254 z "
         style="fill:#2e4b7d;fill-opacity:1;fill-rule:evenodd"
         id="path9588" />
    </g>
  </g>
</svg>
